<svg width="73" height="74" viewBox="0 0 73 74" fill="none" xmlns="http://www.w3.org/2000/svg">
<path d="M1.97926 0.80976C0.5392 1.82127 -0.216476 3.56973 0.0544281 5.3182L9.17957 65.4307C9.39344 66.8324 10.2347 68.0607 11.4608 68.7543C12.687 69.4479 14.1556 69.5346 15.4531 68.9855L32.5057 61.8038L42.2725 72.5113C43.5414 73.913 45.5375 74.3754 47.2913 73.6818C49.045 72.9882 50.1857 71.2686 50.1857 69.3612V57.2809C50.1857 56.7029 49.9718 56.1538 49.5868 55.7347L25.6904 29.3054C24.8634 28.3951 24.8919 26.9934 25.7474 26.1264C26.6029 25.2594 27.9859 25.2016 28.8842 26.0252L57.885 52.1366L70.4748 45.7497C71.9862 44.9838 72.9557 43.4521 72.9985 41.747C73.0413 40.0419 72.1573 38.4523 70.703 37.5998L6.82699 0.607458C5.30138 -0.274 3.41932 -0.187299 1.97926 0.80976Z" fill="#FFFFFF" fill-opacity="1"/>
</svg>
